/* XPM */
static char *result[] = {
/* columns rows colors chars-per-pixel */
"32 32 126 2 ",
"   c #5D1FD2",
".  c #641BCF",
"X  c #621DD0",
"o  c #5E23D4",
"O  c #5A2AD6",
"+  c #572ED8",
"@  c #5F2EDC",
"#  c #4E3BDF",
"$  c #5333DB",
"%  c #5B34DC",
"&  c #5139DD",
"*  c #6121D2",
"=  c #6732D6",
"-  c #613ADB",
";  c #4B3FE1",
":  c #5B39E3",
">  c #5A3FE8",
",  c #3C4DE9",
"<  c #3D5CE7",
"1  c #3D54EB",
"2  c #3659EE",
"3  c #395AEE",
"4  c #355DF0",
"5  c #3E5DF3",
"6  c #3562EF",
"7  c #3E60E8",
"8  c #346AED",
"9  c #2E63F4",
"0  c #2D69F6",
"q  c #2B6DF8",
"w  c #3264F3",
"e  c #3964F3",
"r  c #336AF5",
"t  c #3C6CF2",
"y  c #2D77F3",
"u  c #2B7CF1",
"i  c #3476F4",
"p  c #3A74F4",
"a  c #317CF2",
"s  c #4C43DF",
"d  c #5C43DF",
"f  c #6A46DD",
"g  c #6B4CDF",
"h  c #7448DC",
"j  c #4645E4",
"k  c #4942E3",
"l  c #4449E6",
"z  c #414DE8",
"x  c #5441E3",
"c  c #5C46E0",
"v  c #5549E2",
"b  c #5746EB",
"n  c #5944EB",
"m  c #534BED",
"M  c #4053E6",
"N  c #4B50E7",
"B  c #4753E9",
"V  c #4F54EF",
"C  c #445DEC",
"Z  c #4B59ED",
"A  c #5150E6",
"S  c #5852E5",
"D  c #545BE9",
"F  c #4755F1",
"G  c #4B55F0",
"H  c #405EF2",
"J  c #495BF0",
"K  c #5B62EA",
"L  c #4165F1",
"P  c #537EF6",
"I  c #7167E7",
"U  c #7373EB",
"Y  c #7A75EA",
"T  c #845BDF",
"R  c #836AE4",
"E  c #8F68E1",
"W  c #897DEA",
"Q  c #9079E7",
"!  c #1F96F8",
"~  c #2D84F6",
"^  c #238BF6",
"/  c #2490F6",
"(  c #2297F9",
")  c #11ADFB",
"_  c #0FB0FC",
"`  c #10B0FC",
"'  c #5A88F8",
"]  c #6F8AF4",
"[  c #7A91F4",
"{  c #8694F3",
"}  c #8E91F0",
"|  c #B59BEB",
" . c #85A5F9",
".. c #8CA8F8",
"X. c #90A9F8",
"o. c #98ADF8",
"O. c #BEABEF",
"+. c #BAAEF1",
"@. c #B2B3F5",
"#. c #BAB1F2",
"$. c #B1B8F6",
"%. c #B3BFF8",
"&. c #C5B4F1",
"*. c #C9BEF3",
"=. c #B0C2FA",
"-. c #BBC2F8",
";. c #BFCCFA",
":. c #CAC9F7",
">. c #CACDF9",
",. c #D0C1F3",
"<. c #D1CCF6",
"1. c #CAD3FA",
"2. c #CEDBFD",
"3. c #DDD4F7",
"4. c #D6D3F8",
"5. c #DCD6F8",
"6. c #DEDAF9",
"7. c #E1DFFA",
"8. c #DEE0FB",
"9. c #EAE5FA",
"0. c #E4EBFD",
"q. c #ECEAFC",
"w. c #EFF2FE",
"e. c #F5F6FE",
"r. c #FEFEFF",
"t. c None",
/* pixels */
"t.t.t.t.t.t.t.t.t.t.t.t.b m m m m m n n t.t.t.t.t.t.t.t.t.t.t.t.",
"t.t.t.t.t.t.t.t.t.m m F 5 e r r 0 w w 5 F m m t.t.t.t.t.t.t.t.t.",
"t.t.t.t.t.t.t.V B H r q q q q q q q q q q r 5 G V t.t.t.t.t.t.t.",
"t.t.t.t.t.t.J H r 0 0 q q q q 0 0 0 0 q 0 q 0 w H J t.t.t.t.t.t.",
"t.t.t.t.t.L e 0 0 0 0 0 0 0 0 0 r ' p 0 r 0 0 0 0 e L t.t.t.t.t.",
"t.t.t.t.t e 0 w w 9 w 9 9 w 9 9  .e.2.P 9 w w 0 r w e t t.t.t.t.",
"t.t.t.i r w w w w w w w w w 9 P 0.r.r...9 w w 9 w w w r i t.t.t.",
"t.t.~ i w 4 w 4 4 w w 2 w w e =.r.r.r.X.9 4 4 4 w 4 4 w i ~ t.t.",
"t.t.~ e 4 4 4 4 4 4 4 4 e o.>.e.r.r.e.] 4 4 4 4 4 4 4 4 w ~ t.t.",
"t.( y 2 3 3 3 3 3 3 3 2 [ r.r.r.r.r.e.] 5 3 3 4 3 4 3 4 1 y ( t.",
"t.! 6 3 1 3 3 3 3 3 1 3 -.r.r.r.r.r.r.w.1.{ 3 1 1 3 1 3 1 w ! t.",
"t.^ 1 1 1 1 1 1 , 1 1 F -.e.r.r.r.r.r.r.r.-.1 1 1 1 1 1 1 1 ^ t.",
"` u z , z 1 M z , M M z J $.r.r.r.r.r.r.r.{ , z z 1 z M 1 z y ` ",
"_ 8 z z z z z z z z z B K >.r.r.r.8.>.q.>.D z z z z z M z z 8 _ ",
"_ < l l l l l l l l N @.q.e.r.r.r.} l K S z l l l l l l l j 3 ` ",
") 1 j j j j j j j j U e.r.r.r.r.r.@.U A j j l k l l j j j j 1 ) ",
") M ; k k k k j k k Y 7.r.r.r.r.r.r.e.:.S k k k k j j k k k , ) ",
") , ; ; ; ; s # ; ; ; I q.r.r.r.r.r.r.4.v # # s ; ; # k ; ; 1 ) ",
") < # # # # # # # # # W r.r.r.e.#.:.6.W # # # # # # # # # & < ) ",
"` 8 & $ # & # $ $ # & #.r.r.r.5.d d d & # & & # # $ # $ & & 8 ) ",
"t.u & $ $ $ $ $ $ # % 6.r.r.r.+.$ $ $ $ $ $ $ $ $ $ & $ $ & ~ t.",
"t./ s $ $ $ $ $ $ + g q.r.r.r.*.I Q % + $ $ + $ $ $ + $ + s / t.",
"t.( C + + + + + + O f 9.r.r.r.r.r.3.% + + + + + + + + + + 7 ( t.",
"t.t.a & O + O O + O % &.r.r.r.r.r.&.O O + O O + O O O O & a t.t.",
"t.t.~ C O O O O O o o h ,.e.r.r.9.I o O O O O O O O O O < ~ t.t.",
"t.t.t.p v o o o o o O o = E | | T o o o o o o o o o o v i t.t.t.",
"t.t.t.t.L & o o o o o * o   o   . * o o * * * o * * x L t.t.t.t.",
"t.t.t.t.t.C &   * X * * * * X * X X * * * * * * * & C t.t.t.t.t.",
"t.t.t.t.t.t.Z x * X X X X X X X X X X X X X X * x Z t.t.t.t.t.t.",
"t.t.t.t.t.t.t.V m : * X . . . . . . . . X * % m V t.t.t.t.t.t.t.",
"t.t.t.t.t.t.t.t.t.m n > = * X * X * * - : n m t.t.t.t.t.t.t.t.t.",
"t.t.t.t.t.t.t.t.t.t.t.t.b n n > > n n n t.t.t.t.t.t.t.t.t.t.t.t."
};
