/* XPM */
static char *result[] = {
/* columns rows colors chars-per-pixel */
"16 16 63 1 ",
"  c #2A5AB4",
". c #2A5BB4",
"X c #2B5BB5",
"o c #2B5CB5",
"O c #2C5CB5",
"+ c #2D5DB5",
"@ c #2E5DB5",
"# c #2E5EB6",
"$ c #2F5EB6",
"% c #3160B7",
"& c #3462B7",
"* c #3563B7",
"= c #3563B8",
"- c #3764B8",
"; c #3966B9",
": c #3B68B9",
"> c #3D6ABA",
", c #446EBB",
"< c #4872BE",
"1 c #4F77BE",
"2 c #547BC1",
"3 c #597FC2",
"4 c #6387C6",
"5 c #6588C6",
"6 c #6588C7",
"7 c #678AC6",
"8 c #6E8EC6",
"9 c #6E90CA",
"0 c #7F9CCB",
"q c #7B99CD",
"w c #809DCD",
"e c #89A4CE",
"r c #91ABD4",
"t c #A0B5D4",
"y c #A5B9D5",
"u c #ACBFD8",
"i c #A9BEDC",
"p c #ABBFDC",
"a c #AFC1DA",
"s c #AFC3DE",
"d c #B2C4DC",
"f c #B8C8D9",
"g c #BBCBDF",
"h c #BACBE2",
"j c #BDCEE3",
"k c #C3D1E3",
"l c #C5D2E0",
"z c #C9D7E7",
"x c #CED8E0",
"c c #CFDAE2",
"v c #D6DFE2",
"b c #D2DDE7",
"n c #D5DFE5",
"m c #D5DFE6",
"M c #D7E0E3",
"N c #D7E1E6",
"B c #D9E3EA",
"V c #DBE4E8",
"C c #DAE4E9",
"Z c #DEE7EC",
"A c #E1EAED",
"S c #E2EAEE",
"D c None",
/* pixels */
"DDDDDOOOOOODDDDD",
"DDDOOOOOX.OOODDD",
"DDOOOOOX69#OOODD",
"DOOOOO <zj=XOOOD",
"DOOOOX4hSs>+OOOD",
"OOOOO%iAZBp;XOOO",
"OOOOO+qCbkr$OOOO",
"OOOOX5gVd2-XOOOO",
"OOOOOwmNna:XOOOO",
"OOOO 3clw7$OOOOO",
"OOOO 0Mu,+OOOOOO",
"DOOOXevxt*oOOOOD",
"DOOOX1yf8oOOOOOD",
"DDOOOX&:@OOOOODD",
"DDDOOOoXOOOOODDD",
"DDDDDOOOOOODDDDD"
};
