/* XPM */
static char *result[] = {
/* columns rows colors chars-per-pixel */
"64 64 62 1 ",
"  c #2758B4",
". c #2C5CB5",
"X c #305FB6",
"o c #3361B7",
"O c #3664B8",
"+ c #3A67B9",
"@ c #3D69BA",
"# c #436EBC",
"$ c #4670BC",
"% c #4B74BE",
"& c #5179BF",
"* c #547BC1",
"= c #587EC2",
"- c #5F83C4",
"; c #6185C5",
": c #6689C6",
"> c #6D8EC6",
", c #6B8EC9",
"< c #6E90CA",
"1 c #7595CA",
"2 c #7897CB",
"3 c #7D9BCB",
"4 c #809ED0",
"5 c #86A2CE",
"6 c #8FA8CF",
"7 c #91AACF",
"8 c #82A0D1",
"9 c #8AA5D1",
"0 c #8EA9D4",
"q c #93ACD3",
"w c #98AFD3",
"e c #9DB4D4",
"r c #9FB5D9",
"t c #A6BAD5",
"y c #ACBFD7",
"u c #A0B7D8",
"i c #A6BBDB",
"p c #AABEDA",
"a c #ADC0DC",
"s c #B2C3D7",
"d c #B4C5DC",
"f c #BBCADC",
"g c #B5C7E0",
"h c #BCCDE2",
"j c #C0CEDC",
"k c #C4D1DE",
"l c #C9D5DF",
"z c #D1DADF",
"x c #C4D3E2",
"c c #C9D6E3",
"v c #CCD9E5",
"b c #CEDBE9",
"n c #D2DCE2",
"m c #D3DFEB",
"M c #D6E0E6",
"N c #D8E2E7",
"B c #D6E1EA",
"V c #DCE5EB",
"C c #DFE8ED",
"Z c #E1EAEE",
"A c #E3ECF0",
"S c None",
/* pixels */
"SSSSSSSSSSSSSSSSSSSSSSSSSS............SSSSSSSSSSSSSSSSSSSSSSSSSS",
"SSSSSSSSSSSSSSSSSSSSSS..X..............X..SSSSSSSSSSSSSSSSSSSSSS",
"SSSSSSSSSSSSSSSSSSS.X........................SSSSSSSSSSSSSSSSSSS",
"SSSSSSSSSSSSSSSSS..............................SSSSSSSSSSSSSSSSS",
"SSSSSSSSSSSSSSSS................................SSSSSSSSSSSSSSSS",
"SSSSSSSSSSSSSS...........................X........SSSSSSSSSSSSSS",
"SSSSSSSSSSSSS......................................SSSSSSSSSSSSS",
"SSSSSSSSSSS...............X..........................SSSSSSSSSSS",
"SSSSSSSSSS......................... ..................SSSSSSSSSS",
"SSSSSSSSS.........................*2-@.................SSSSSSSSS",
"SSSSSSSS.........................OrZZh<X................SSSSSSSS",
"SSSSSSS................XX........3ZZAAm=.................SSSSSSS",
"SSSSSSS........................ *bACAZA8 ................SSSSSSS",
"SSSSSS.........................oiACAZZA0..................SSSSSS",
"SSSSS..........................<mAAAAZA0...................SSSSS",
"SSSSS........................ #hAACCCZZ< ..................SSSSS",
"SSSS....................... oo0AZZCZZZm* ...................SSSS",
"SSS.......................*9ggmCCCCCCAh+.....................SSS",
"SSS......................OaACZCCCCCCCZ0 .....................SSS",
"SS...................... :VCCCCCCCCCCCi;#X. ..................SS",
"SS......................XrCCCCCCCCCCVCCNvp9=..................SS",
"SS..................X...@cCCVCVVCVCVCVCVZZZm* ................SS",
"SX......X...............:VVCVCVCCZVVCCCCCVCg+.........o........S",
"S.......................0ACVVVVVCmVVVVVVVVZ0...................S",
"S.......................:rhBVVVVCVVCVVVCZCm; ..................S",
"S.........................@dCNVVVNVVVNVVmZh+...................S",
"..........................$cVVVVVVVNVVVVCm1 ....................",
"..........X.............. <BVVNVNVVr1ehvx0o.....................",
".......................o%%uVNVVNVVm- .+**. .....................",
"......................%pvvBNNNNVmVg+..  .................o......",
".....................oiVBNNNNVNNNNq.   .........................",
".....................;nNNNNNNNNNNNjw1*+.........................",
".....................qNMNNNNMMMMNNNNNndq#.......................",
"....................OdVMNNMMMMMMNNNNNNNn; ......................",
"....................o3axMMMMMMMMmNNNNnNx#.......................",
"......................X-xMMMMMMMNnnNNNNw........................",
"...................... :nMMnMMMMnNNnnNc&........................",
".......................wMMnMMnnz95ykcf>X....................X...",
"S.......X.............#fMMMnnMMf@.o#%@..X......................S",
"S.....................:nnnMnMnMw...............................S",
"S.....................7MznMnnnn> ..............................S",
"S....................@dnMnnnnMk&...............................S",
"SS....X..............&lnnnzMnnd+. ............................SS",
"SS.................. :znnnnvnnf&.%3-..........................SS",
"SS...................2zznzzzzzzftjneX.........................SS",
"SSS................. 2znznMznvnznnn6.........................SSS",
"SSS................. >znvnnzznvznnz> ........................SSS",
"SSSS.................&kzzzzvzzzzzzj%...................X....SSSS",
"SSSSS................oqzzznzzzzzzzqX.......................SSSSS",
"SSSSS.................#ynzvzzzzzzf%........................SSSSS",
"SSSSSS.................#7kzzzzzzf;.........X..............SSSSSS",
"SSSSSSS...........X.....X%3usfs7&.................X......SSSSSSS",
"SSSSSSS..................  o+@+X.........................SSSSSSS",
"SSSSSSSS................ X..X  .........................SSSSSSSS",
"SSSSSSSSS...............X..............................SSSSSSSSS",
"SSSSSSSSSS...X........................................SSSSSSSSSS",
"SSSSSSSSSSS..........................................SSSSSSSSSSS",
"SSSSSSSSSSSSS......................................SSSSSSSSSSSSS",
"SSSSSSSSSSSSSS....................................SSSSSSSSSSSSSS",
"SSSSSSSSSSSSSSSS................................SSSSSSSSSSSSSSSS",
"SSSSSSSSSSSSSSSSS................X.............SSSSSSSSSSSSSSSSS",
"SSSSSSSSSSSSSSSSSSS..X...................X...SSSSSSSSSSSSSSSSSSS",
"SSSSSSSSSSSSSSSSSSSSSS....................SSSSSSSSSSSSSSSSSSSSSS",
"SSSSSSSSSSSSSSSSSSSSSSSSSS............SSSSSSSSSSSSSSSSSSSSSSSSSS"
};
