/* XPM */
static char *result[] = {
/* columns rows colors chars-per-pixel */
"64 64 179 2 ",
"   c #641BCF",
".  c #621ED1",
"X  c #4F2CD9",
"o  c #5D25D4",
"O  c #5628D7",
"+  c #5A2AD7",
"@  c #562ED9",
"#  c #5B2CD8",
"$  c #4E35DD",
"%  c #4E3ADF",
"&  c #5334DB",
"*  c #5B33DC",
"=  c #533BDE",
"-  c #5D3CDC",
";  c #6021D2",
":  c #622AD5",
">  c #602AD9",
",  c #693DDA",
"<  c #713ED9",
"1  c #4C3DE0",
"2  c #5A3CE4",
"3  c #3F46E6",
"4  c #3E4EE9",
"5  c #3F55E7",
"6  c #3757EE",
"7  c #3D53EB",
"8  c #375BEF",
"9  c #3A59ED",
"0  c #355DF0",
"q  c #3667EB",
"w  c #346DED",
"e  c #2F75EF",
"r  c #3275EE",
"t  c #2F66F5",
"y  c #2D6AF6",
"u  c #2B6DF8",
"i  c #3263F3",
"p  c #3A63F4",
"a  c #326AF4",
"s  c #3D6CF3",
"d  c #2E7EF5",
"f  c #3573F2",
"g  c #3973F3",
"h  c #337CF5",
"j  c #5D40DD",
"k  c #6041DD",
"l  c #6A4CDF",
"z  c #704FDF",
"x  c #794ADB",
"c  c #7245DB",
"v  c #7751DE",
"b  c #4646E5",
"n  c #4941E2",
"m  c #434AE7",
"M  c #4B4AE3",
"N  c #414EE8",
"B  c #4F4EEF",
"V  c #5642E4",
"C  c #5B45E0",
"Z  c #524BE4",
"A  c #5746ED",
"S  c #5944EC",
"D  c #544BED",
"F  c #4253E5",
"G  c #4D51E7",
"H  c #4D54EF",
"J  c #455CEB",
"K  c #4A5AEE",
"L  c #5051EE",
"P  c #545CEA",
"I  c #585EE9",
"U  c #5553E6",
"Y  c #4854F1",
"T  c #435AF1",
"R  c #495CF0",
"E  c #655BE5",
"W  c #7255E1",
"Q  c #745EE3",
"!  c #4163EE",
"~  c #4F60EC",
"^  c #5C63EA",
"/  c #5C6AEC",
"(  c #4463F1",
")  c #436BF2",
"_  c #486BF1",
"`  c #4C74F4",
"'  c #497BF7",
"]  c #4672F4",
"[  c #5470F0",
"{  c #5B76F1",
"}  c #6167EA",
"|  c #6C6AE9",
" . c #7368E7",
".. c #7B6DE7",
"X. c #7262E5",
"o. c #6A7BEF",
"O. c #6973ED",
"+. c #7676EC",
"@. c #8458DE",
"#. c #805BE0",
"$. c #916DE2",
"%. c #8F77E6",
"&. c #857FEB",
"*. c #907EE9",
"=. c #9B79E5",
"-. c #1F91F6",
";. c #1D9AF7",
":. c #1D9CF9",
">. c #2781F3",
",. c #2C84F5",
"<. c #268CF5",
"1. c #2A8AF7",
"2. c #278EF8",
"3. c #2393F8",
"4. c #2199F9",
"5. c #0FAFFB",
"6. c #17A7FB",
"7. c #19A3FA",
"8. c #12ACFB",
"9. c #0EB4FD",
"0. c #09BAFE",
"q. c #10B1FD",
"w. c #5F88F7",
"e. c #7B87F0",
"r. c #7D98F6",
"t. c #7898F7",
"y. c #9E80E6",
"u. c #9889EB",
"i. c #898EF0",
"p. c #869DF6",
"a. c #8B9CF4",
"s. c #8A92F1",
"d. c #9297F1",
"f. c #989BF1",
"g. c #A087E8",
"h. c #A095ED",
"j. c #A997EC",
"k. c #A49BEF",
"l. c #8FA3F6",
"z. c #83A2F9",
"x. c #88A6F9",
"c. c #8BAAF9",
"v. c #96A8F6",
"b. c #B6A7EF",
"n. c #BDAAEF",
"m. c #A5A4F2",
"M. c #B5AAF0",
"N. c #A9B0F5",
"B. c #A7BAF9",
"V. c #BFB5F2",
"C. c #B3B5F5",
"Z. c #C7B7F1",
"A. c #BEC1F7",
"S. c #BFC9F9",
"D. c #B7C3F9",
"F. c #C3C3F6",
"G. c #CAC4F5",
"H. c #C6C8F7",
"J. c #CBC9F7",
"K. c #C3CEFA",
"L. c #D4CEF7",
"P. c #C9D5FC",
"I. c #DED3F6",
"U. c #D3D2F9",
"Y. c #DCD6F8",
"T. c #DBDBFA",
"R. c #D4DDFC",
"E. c #E2DBF8",
"W. c #DFE5FD",
"Q. c #E3E3FB",
"!. c #EAE5FA",
"~. c #E4E9FD",
"^. c #EBECFC",
"/. c #F1EDFC",
"(. c #EEF1FE",
"). c #F4F4FD",
"_. c #F9F7FD",
"`. c #FFFFFF",
"'. c None",
/* pixels */
"'.'.'.'.'.'.'.'.'.'.'.'.'.'.'.'.'.'.'.'.'.'.'.'.'.'.S S A S S S S S S S S S '.'.'.'.'.'.'.'.'.'.'.'.'.'.'.'.'.'.'.'.'.'.'.'.'.'.",
"'.'.'.'.'.'.'.'.'.'.'.'.'.'.'.'.'.'.'.'.'.'.A A A A A S A A A B D A A A A S A A A A '.'.'.'.'.'.'.'.'.'.'.'.'.'.'.'.'.'.'.'.'.'.",
"'.'.'.'.'.'.'.'.'.'.'.'.'.'.'.'.'.'.'.'.D A A D B Y T p a a y y y y a a p T Y B D A A D '.'.'.'.'.'.'.'.'.'.'.'.'.'.'.'.'.'.'.'.",
"'.'.'.'.'.'.'.'.'.'.'.'.'.'.'.'.'.D D D D Y R i u u u u u u u u u u u u u u u y p R Y D D D D '.'.'.'.'.'.'.'.'.'.'.'.'.'.'.'.'.",
"'.'.'.'.'.'.'.'.'.'.'.'.'.'.'.'.D D H R p u u u u u u u u u u u u u u u u u u u u u y p Y Y L L '.'.'.'.'.'.'.'.'.'.'.'.'.'.'.'.",
"'.'.'.'.'.'.'.'.'.'.'.'.'.'.H H H J i u u u u u u u y u u u u u y u u y u u u u u u u u u i R H L Y '.'.'.'.'.'.'.'.'.'.'.'.'.'.",
"'.'.'.'.'.'.'.'.'.'.'.'.'.H H R p u u u t u u t y y u u y y u y u y u u y u y y u y u y t u t p R Y Y '.'.'.'.'.'.'.'.'.'.'.'.'.",
"'.'.'.'.'.'.'.'.'.'.'.R R R p t u t t u t u u t y y y y y y y y y y y y y y y y y y y y u y u u y ( R R R '.'.'.'.'.'.'.'.'.'.'.",
"'.'.'.'.'.'.'.'.'.'.( ( ( p t u t u t y y a u a t t t u t y y y y y y y y y y y y y y y t u t t t u p ( ( ( '.'.'.'.'.'.'.'.'.'.",
"'.'.'.'.'.'.'.'.'.) ( ( i a t t t t t y t t t t t a u t t t t t y a z.t.' a a t a t t t t t a t t t t i ( ( ( '.'.'.'.'.'.'.'.'.",
"'.'.'.'.'.'.'.'.) s s i t t t t t t t t t t t t t t t t t t t t t x.`.`.~.c.a t t t t a t t t t t t t t a s s ) '.'.'.'.'.'.'.'.",
"'.'.'.'.'.'.'.s s s a t i t t a i t i t a t i t t a i t t t t t w.(.`.`.`.`.x.t t t a t t i t t t a i t i a s s g '.'.'.'.'.'.'.",
"'.'.'.'.'.'.'.g f a i t i t i i t i t t i t 0 t i i i t t i t s S.`.`.`.`.`.P.s 0 t t t i t t i i i t i i i a g g '.'.'.'.'.'.'.",
"'.'.'.'.'.'.h h a 0 i i i i i i i i 0 i i i i t i i i i i i 0 p.`.`.`.`.`.`.~.] t 0 0 i i 0 0 i i i i i i i i a h g '.'.'.'.'.'.",
"'.'.'.'.'.h ,.f i 0 i i i i i 0 0 i t 0 0 i t 0 t 8 i i i 0 ` W.`.`.`.`.`.`.~._ 0 t 0 i i i i i i i i 0 i i i i g ,.,.'.'.'.'.'.",
"'.'.'.'.'.,.h i 8 i 0 0 0 0 0 i i 0 0 i 0 0 0 q 8 t 8 8 0 i B.`.`.`.`.`.`.`.R.s 0 0 0 i 0 0 0 i 8 i 8 i 8 i 8 i p h ,.'.'.'.'.'.",
"'.'.'.'.1.,.a q 0 0 8 0 p 0 0 0 0 0 0 0 8 0 0 0 0 0 ) t.r.p.).`.`.`.`.`.`.`.D.0 0 0 0 0 0 0 0 0 0 i 8 8 0 0 0 0 0 a 1.1.'.'.'.'.",
"'.'.'.3.2.,.8 0 8 8 0 0 0 0 8 8 8 0 0 0 0 0 0 0 0 _ K.`.`._.`.`.`.`.`.`.`.`.r.0 8 0 8 0 0 8 0 0 8 8 8 0 0 0 0 0 0 8 d 2.2.'.'.'.",
"'.'.'.3.2.a 8 8 8 8 8 8 8 8 8 8 8 8 8 8 8 8 8 8 6 l.`.`.`.`.`.`.`.`.`.`.`.(.{ 6 8 8 0 0 0 9 6 8 8 8 8 8 0 6 9 0 8 8 a 3.3.'.'.'.",
"'.'.'.4.,.8 9 9 8 9 9 9 9 9 8 9 8 9 9 9 9 9 9 9 ! P.`.`.`.`.`.`.`.`.`.`.`.^.a.[ 9 9 6 6 9 9 9 9 9 9 9 8 9 9 9 9 8 7 8 ,.4.'.'.'.",
"'.'.:.:.a 9 9 9 9 9 7 9 9 9 9 9 9 9 9 9 9 7 9 8 { ).`.`.`.`.`.`.`.`.`.`.`.`.`.~.K.a.{ 9 6 9 9 9 9 9 9 9 9 9 9 9 9 9 9 a :.7.'.'.",
"'.'.7.3.8 9 9 7 8 7 7 8 7 9 7 7 7 7 7 9 7 9 9 7 a.`.`.`.`.`.`.`.`.`.`.`.`.`.`.`.`.`.).a.7 9 7 9 9 9 7 9 7 7 7 9 7 9 7 8 3.7.'.'.",
"'.6.6.>.7 7 7 7 7 7 7 7 7 7 7 7 7 7 7 7 7 7 7 7 A.`.`.`.`.`.`.`.`.`.`.`.`.`.`.`.`.`.`.v.7 7 7 7 7 7 7 7 7 7 7 7 7 7 9 7 d 8.7.'.",
"'.8.6.q 7 7 7 7 7 7 7 7 7 7 7 7 7 7 7 7 7 7 4 T v.W._.`.`.`.`.`.`.`.`.`.`.`.`.`.`.`.).o.7 7 7 7 7 7 7 7 7 7 7 7 7 7 7 7 q 7.8.'.",
"'.8.7.9 7 7 7 N 7 7 7 N 7 N 7 7 7 7 4 7 7 7 N 7 7 K e.^.`.`.`.`.`.`.`.`.`.`.`.`.`.`.T.K 7 7 7 7 7 7 7 7 7 N 7 7 7 7 7 4 9 7.8.'.",
"'.q.-.N N N N N N N N N N N N N 4 4 N N 4 N N N N 4 / ^.`.`.`.`.`.`.`.`.`.`.`.`.`.`.N.4 7 m m 7 m N m N N N N 4 N N N F N -.9.'.",
"9.9.>.N N N N m N N N N N N N N N N N N N N N N 4 4 s.`.`.`.`.`.`.`.`._.`.`.`.`.`.^.O.4 m 5 4 N N m N N N N N N m 7 m 7 N >.9.9.",
"9.9.e m m F m m m m m m N m m m m N m m m m m F I P A.`.`.`.`.`.`.`._.d.i.A.Q._.^.d.m m m m m m F m N m m m m N m m m m m e 9.9.",
"0.9.q m m m m m m m m m m m m m m m m m m m } F.~.Q._.`.`.`.`.`.`.`.Q.I 3 m I O.} m m m m m m m m m m m m m m m m m m m m q 9.0.",
"0.9.9 b m m b m m m m b b m b m m m b m m B H.`.`.`.`.`.`.`.`.`.`.`.C.m m m b m b m m m m b m m m m b m b m m b m b m m b 9 9.0.",
"0.5.7 b b b b b m b b b b b b b b b b b b +._.`.`.`.`.`.`.`.`.`.`.`.f.M b 3 b b b b b b b b b b b b b b b b b b b b b b b 5 8.0.",
"0.5.5 b b b b b b b b b b b b b b b b b b m.`.`.`.`.`.`.`.`.`.`.`.`.).U.m.+.U n b b b b b b b b b b b b b b b b b b b b b 5 5.0.",
"0.5.F n n n n b n b n n b n b n n n b b M G.`.`.`.`.`.`.`.`.`.`.`.`.`.`.`._.T.m.M b n n b n n b n n n b n b n n b n b n n 5 8.0.",
"0.5.F n n n n n n n n n n n n n n n n n n &.F.!.`.`.`.`.`.`.`.`.`.`.`.`.`.`.`.^.E n n n n n n n n n n n n b n n n n n n n F 5.0.",
"0.5.5 n n n n n n n n % n % n % n % n % n % b | Q.`.`.`.`.`.`.`.`.`.`.`.`.`.`.U.Z n n n n n 1 n n n 1 n n % n n n n n n n 5 5.0.",
"9.9.9 % n % % n n % n n % n n n % n n n % n %  ./.`.`.`.`.`.`.`.`.`.`.`.`.`.`.k.% n % 1 % n % n n % n % n 1 % 1 % % n % % 9 9.9.",
"9.9.q % n % n % % % n % % % n % % n % n % % % k.`.`.`.`.`.`.`.`.!.).`.`.`.`.Q.E $ % n 1 % n % n % % % 1 1 1 1 1 % % n % % q 9.9.",
"9.9.e % % % = % % % % % n % % % % % % % % % j P.`.`.`.`.`.`.`./...X.h.J.Y.G...% % % % % % % % % % % % % % % % % % % % % % e 9.9.",
"'.5.<.% % % % % % % % % % % % % % % % % % % Q /.`.`.`.`.`.`.`.Y.j $ $ = j 2 $ = % % % % % % % % % % % % % % % % % % % % % <.q.'.",
"'.5.;.n & % & & & % = & & & % & & & % & & $ u.`.`.`.`.`.`.`.`.M.$ % % % % $ & $ $ = & % & = & % = $ = & % & & % & = & & n ;.q.'.",
"'.6.7.F & & & & & & & & % & & & & % & & & & V.`.`.`.`.`.`.`.`.*.$ & & & & & & & & & = & & & & & & & & & & & & & & % & & F 7.8.'.",
"'.7.7.r & & & & & & & & & & & & & & & & % j Y.`.`.`.`.`.`.`.).Q & & & & & & & & & & & & & & & & & & & & & & & & & & & & r 7.7.'.",
"'.'.7.<.& & & & @ & & & & & @ & & & & & & l !.`.`.`.`.`.`.`./.v X & j - @ & @ & & & & & & @ & @ & & @ & & & & & & @ & = 1.7.'.'.",
"'.'.4.4.F @ @ & & @ @ @ @ & @ & @ @ @ @ @ v /.`.`.`.`.`.`.`.`.Z.%.j.Y.b.& @ & & @ @ & @ @ & @ & & @ & @ & @ & @ @ & @ F ;.:.'.'.",
"'.'.'.4.r & * @ @ @ @ @ @ @ @ @ @ @ @ & @ l /.`.`.`.`.`.`.`.`.`.`.`.`.L.* @ @ @ @ @ @ @ & @ @ & @ @ @ @ @ @ @ @ @ @ * r 3.'.'.'.",
"'.'.'.3.2.M + @ @ @ @ @ @ @ @ @ @ @ + @ O k E.`.`.`.`.`.`.`.`.`.`.`.`.Z.+ @ @ @ @ @ @ @ @ @ @ @ @ @ @ @ @ @ @ @ @ + M 2.3.'.'.'.",
"'.'.'.2.<.w @ + + @ + + + @ @ + + * + + @ + n.`.`.`.`.`.`.`.`.`.`.`.`.g.O + + + + @ + + + + + + + @ + + + + @ + + @ w 2.2.'.'.'.",
"'.'.'.'.1.,.M + + + + + + + + + + + + + + O @./.`.`.`.`.`.`.`.`.`.`./.v O + + + + + + + + + + + + + + + + + + + + M ,.1.'.'.'.'.",
"'.'.'.'.'.,.g * + + + + + + o + + + o + + o + =._.`.`.`.`.`.`.`.`.`.n.+ + + + + + + o + + + o + + + + + + + o + * r ,.'.'.'.'.'.",
"'.'.'.'.'.,.h J + o o + o + + o + o + o o + + + $.E.`.`.`.`.`.`.`.I.c O o o o + ; o + + o o + + + o + o + o o + J h h '.'.'.'.'.",
"'.'.'.'.'.'.h g M ; + o + ; ; o o o o o o + o o ; , =.Z.!._._.!.Z.x o o o o o o + ; + o o o o o o + o o o + o M f h '.'.'.'.'.'.",
"'.'.'.'.'.'.'.g s & ; o ; + ; o o o o o o ; ; o o o . : c v @.c : ; o o o o o o o o o ; o o o o ; o ; o o o & s g '.'.'.'.'.'.'.",
"'.'.'.'.'.'.'.s s ! * ; ; o ; ; o o ; o o ; ; ; ; o ; o o ; O . ; ; o ; o ; o ; ; ; o ; o ; ; o ; o o ; o * ( g g '.'.'.'.'.'.'.",
"'.'.'.'.'.'.'.'.s ) ! & ; ; o ; o   ; ; ; ; ; ; ; ; ; ; ; ; ; ; ; ; o ; ; ; ; ; ; ; ; ; ; o ; ; ; ; o   @ J ) s '.'.'.'.'.'.'.'.",
"'.'.'.'.'.'.'.'.'.! ( K * ; ; ; o o ; o ; ; . ; . ; ; ; ; ; ; ; ; ; ; ; ; ; . ; ; ; ; ; ; . . ; ; ; ; & J ( ( '.'.'.'.'.'.'.'.'.",
"'.'.'.'.'.'.'.'.'.'.! ~ J = ; .   ;     ; ; ; ; . . . ; ; . . . . . . . . ; . ;   ; ; ; ; . . ; ; ; - K ! ~ '.'.'.'.'.'.'.'.'.'.",
"'.'.'.'.'.'.'.'.'.'.'.R R K V o ; ; . ;   ; ;   ;     ; . ;   . . . . . . . . . . . .   . .   . : C H R R '.'.'.'.'.'.'.'.'.'.'.",
"'.'.'.'.'.'.'.'.'.'.'.'.'.H H D > ;     .   .     ;   ;     .   . .   . .   . . .   . . .   . * D R H '.'.'.'.'.'.'.'.'.'.'.'.'.",
"'.'.'.'.'.'.'.'.'.'.'.'.'.'.H H L V >                                 .                 . > V L H H '.'.'.'.'.'.'.'.'.'.'.'.'.'.",
"'.'.'.'.'.'.'.'.'.'.'.'.'.'.'.'.L L D S > ;                                         ; # 2 D L L '.'.'.'.'.'.'.'.'.'.'.'.'.'.'.'.",
"'.'.'.'.'.'.'.'.'.'.'.'.'.'.'.'.'.D D D A S 2 > ;                               > * S D D D D '.'.'.'.'.'.'.'.'.'.'.'.'.'.'.'.'.",
"'.'.'.'.'.'.'.'.'.'.'.'.'.'.'.'.'.'.'.'.A A S A S 2 > > > .       .   : + * 2 V A A A A '.'.'.'.'.'.'.'.'.'.'.'.'.'.'.'.'.'.'.'.",
"'.'.'.'.'.'.'.'.'.'.'.'.'.'.'.'.'.'.'.'.'.'.A A A A S S S S S S S 2 S S A S A A D A '.'.'.'.'.'.'.'.'.'.'.'.'.'.'.'.'.'.'.'.'.'.",
"'.'.'.'.'.'.'.'.'.'.'.'.'.'.'.'.'.'.'.'.'.'.'.'.'.'.S S S S S S S S S S S S '.'.'.'.'.'.'.'.'.'.'.'.'.'.'.'.'.'.'.'.'.'.'.'.'.'."
};
