/* XPM */
static char *result[] = {
/* columns rows colors chars-per-pixel */
"128 128 68 1 ",
"  c #2C5CB5",
". c #305FB6",
"X c #3361B7",
"o c #3664B8",
"O c #3966B9",
"+ c #3D69BA",
"@ c #426DBC",
"# c #4771BD",
"$ c #4B74BD",
"% c #5179BF",
"& c #4D76C0",
"* c #547BC1",
"= c #597FC3",
"- c #5C81C3",
"; c #6286C5",
": c #6689C6",
"> c #6C8DC6",
", c #6C8EC9",
"< c #6F90C7",
"1 c #7191C7",
"2 c #7494CA",
"3 c #7997CA",
"4 c #7C9ACC",
"5 c #829FCE",
"6 c #829FD0",
"7 c #84A0CF",
"8 c #8BA5CE",
"9 c #91AACF",
"0 c #87A3D2",
"q c #89A5D1",
"w c #8EA9D1",
"e c #93ACD4",
"r c #98AFD2",
"t c #9CB3D5",
"y c #9CB3D8",
"u c #A1B6D4",
"i c #A6BAD6",
"p c #AABDD7",
"a c #A0B7DA",
"s c #A4BAD9",
"d c #ABBEDA",
"f c #AFC1D7",
"g c #ACC1DE",
"h c #B0C1D7",
"j c #B4C5DB",
"k c #BCCBDC",
"l c #B6C9E2",
"z c #BDCDE2",
"x c #C2CFDD",
"c c #C5D2DF",
"v c #C9D5DE",
"b c #CFD9DF",
"n c #D1DADF",
"m c #C3D2E3",
"M c #CAD6E2",
"N c #CED9E3",
"B c #C8D7E8",
"V c #CCDAE9",
"C c #D2DCE2",
"Z c #D2DEE9",
"A c #D7E0E6",
"S c #D8E1E7",
"D c #D6E1EA",
"F c #DCE5EA",
"G c #DFE8ED",
"H c #E1EAEE",
"J c #E3ECF0",
"K c None",
/* pixels */
"KKKKKKKKKKKKKKKKKKKKKKKKKKKKKKKKKKKKKKKKKKKKKKKKKKKKKKK                  KKKKKKKKKKKKKKKKKKKKKKKKKKKKKKKKKKKKKKKKKKKKKKKKKKKKKKK",
"KKKKKKKKKKKKKKKKKKKKKKKKKKKKKKKKKKKKKKKKKKKKKKKKKK             .              KKKKKKKKKKKKKKKKKKKKKKKKKKKKKKKKKKKKKKKKKKKKKKKKKK",
"KKKKKKKKKKKKKKKKKKKKKKKKKKKKKKKKKKKKKKKKKKKKKK  .                                 KKKKKKKKKKKKKKKKKKKKKKKKKKKKKKKKKKKKKKKKKKKKKK",
"KKKKKKKKKKKKKKKKKKKKKKKKKKKKKKKKKKKKKKKKKKK.                                        .KKKKKKKKKKKKKKKKKKKKKKKKKKKKKKKKKKKKKKKKKKK",
"KKKKKKKKKKKKKKKKKKKKKKKKKKKKKKKKKKKKKKKK.                                               KKKKKKKKKKKKKKKKKKKKKKKKKKKKKKKKKKKKKKKK",
"KKKKKKKKKKKKKKKKKKKKKKKKKKKKKKKKKKKKKK.                                                  .KKKKKKKKKKKKKKKKKKKKKKKKKKKKKKKKKKKKKK",
"KKKKKKKKKKKKKKKKKKKKKKKKKKKKKKKKKKKK.                                                       KKKKKKKKKKKKKKKKKKKKKKKKKKKKKKKKKKKK",
"KKKKKKKKKKKKKKKKKKKKKKKKKKKKKKKKKK.                                                         . KKKKKKKKKKKKKKKKKKKKKKKKKKKKKKKKKK",
"KKKKKKKKKKKKKKKKKKKKKKKKKKKKKKKK                                                                KKKKKKKKKKKKKKKKKKKKKKKKKKKKKKKK",
"KKKKKKKKKKKKKKKKKKKKKKKKKKKKKK                                             .                    . KKKKKKKKKKKKKKKKKKKKKKKKKKKKKK",
"KKKKKKKKKKKKKKKKKKKKKKKKKKKKK                                                                     .KKKKKKKKKKKKKKKKKKKKKKKKKKKKK",
"KKKKKKKKKKKKKKKKKKKKKKKKKKK                  .      .                                               .KKKKKKKKKKKKKKKKKKKKKKKKKKK",
"KKKKKKKKKKKKKKKKKKKKKKKKKK                                                                            KKKKKKKKKKKKKKKKKKKKKKKKKK",
"KKKKKKKKKKKKKKKKKKKKKKKKK                                                                             .KKKKKKKKKKKKKKKKKKKKKKKKK",
"KKKKKKKKKKKKKKKKKKKKKKK                                                                                 .KKKKKKKKKKKKKKKKKKKKKKK",
"KKKKKKKKKKKKKKKKKKKKKK                                                                                    KKKKKKKKKKKKKKKKKKKKKK",
"KKKKKKKKKKKKKKKKKKKKK                                                .                                    .KKKKKKKKKKKKKKKKKKKKK",
"KKKKKKKKKKKKKKKKKKKK                                                                                        KKKKKKKKKKKKKKKKKKKK",
"KKKKKKKKKKKKKKKKKKK                                                   OO                                    .KKKKKKKKKKKKKKKKKKK",
"KKKKKKKKKKKKKKKKKK                                                   ;zle,&.                                  KKKKKKKKKKKKKKKKKK",
"KKKKKKKKKKKKKKKKK                                                   *VJJJHBy&                                  KKKKKKKKKKKKKKKKK",
"KKKKKKKKKKKKKKKK                                                   @lJJJJHJJB-                                  KKKKKKKKKKKKKKKK",
"KKKKKKKKKKKKKKK                                                    eJJJJJJJJJB&                                 .KKKKKKKKKKKKKKK",
"KKKKKKKKKKKKKK                                                    ;ZJHJJHJJJJJe                                   KKKKKKKKKKKKKK",
"KKKKKKKKKKKKKK                                                   @lJHHHHHHJHHJlo                                  KKKKKKKKKKKKKK",
"KKKKKKKKKKKKK                                                    4JJJGHJHHHHJJV&                                  .KKKKKKKKKKKKK",
"KKKKKKKKKKKK                                                    *VJJHJJGHHHHJJD*                                    KKKKKKKKKKKK",
"KKKKKKKKKKK                                                    .gJHHHHHJJHHJJJD*                                    .KKKKKKKKKKK",
"KKKKKKKKKKK                                                    2HHHHHHJGHHJGJJD&                                     KKKKKKKKKKK",
"KKKKKKKKKK                                                    @zJHHHHHHHJGGJHHB&                                      KKKKKKKKKK",
"KKKKKKKKK  .                                                  wJHHGGHHGGGJGGGJl+                                      .KKKKKKKKK",
"KKKKKKKKK                                                    -ZJHHHHGHHHGGGHGJa.                                       KKKKKKKKK",
"KKKKKKKK                                                    ogJGHGHHGHHGGHHGHJ3                        .                KKKKKKKK",
"KKKKKKKK                                                    3GGJGHGGHHGHHHGHHD*                                         KKKKKKKK",
"KKKKKKK                                               +2yye4BJGGHHGHGHHHGHHHHz+                                         .KKKKKKK",
"KKKKKKK                       .                      ,BFJJJJGGGGGGGGGGGGGGGGJe                                           KKKKKKK",
"KKKKKK                                              ;DGGGGGHGFFJGGGGHHFGGGGGF:                               .            KKKKKK",
"KKKKKK                                             +zJGGGGFJFJJFGGGGFGHGGGGGB@                                            KKKKKK",
"KKKKK                                              2FGGGGFHFJGGGGGGGGGFGGGGJg+                                             KKKKK",
"KKKKK                                             olJGGGFJGGFGGGGGGGGGHGGGGFDzy3&+                                        .KKKKK",
"KKKK                                              *DFFGFGGGGFGFGGGGGGGGGFGGGFHHFZzy3*+                                      KKKK",
"KKKK                                              0GGGGGFFGFGGGGGFFGGFGFGFFGFGGGHHHHZzy,.                                   KKKK",
"KKKK                                       .     ojGGGGGGGGGGGGFFFGGHFFGGGFGGGFFFHFFGHHD=                                   KKKK",
"KKK                                              &ZGFFFFFFFGFFGFGGGDFGDGFGGGGFGGFFFHGFFD=                                    KKK",
"KKK    .         .                               3FFFGGFGFFGFFGGFGGFGGFGGFFFGFGFFGGFFGHz+                                    KKK",
"KKK                                             XsGFGFFGFGGFGFFFFFFHFFFFFFGFFFFFFFFFFFGe                                     KKK",
"KK                                              $MGGFFGFFGFFGFGFFHFFFFFFFGFFFGFGGFFGFFS;                                      KK",
"KK                                              :FFFFFFFFFFFFFFFFFFFGFFGFFGGFFFGFFFFGFm@                          .           KK",
"KK                                              -zDGGGFFFFFFFFFFFFFFFFFFFFFFFFFFFFFFFFt              .                        KK",
"KK                                              .+-4smAFFFFFFFFFFFFFFFFFFFFFFFFFFFFFFF>                                       KK",
"K                                                   .+4FFFFFFFFFFFFFFFFFFFFFFFFFFFFFFm@                                        K",
"K                                                     wFFFFFFFSFFFFFFFFFFFFFFFFFFFFFFe.                                        K",
"K                                                    +lFFFFFSFFFDFFFDFFSFSFSSFSFFFFFV&                                         K",
"K                                                    -AFSFFSFFFFFFSFFFFFFFFFFFFFSFSF6                                          K",
"K                              .                     qFFSFSFSFFDFSFFSFSuaxZFFFSFFFFyO                                          K",
"                      .                             +jFDFSFFFDSFSFSFFFm@.+-4sxNZVmqO                                            ",
"                                                    *VFFAFSFFSFSSFSSZHr      +&*&@                                              ",
"                                               o%--#8FFFFSFSSFSFFSFHHZ>                                                         ",
"                                             .:fNSAMNFSSFSSSFSFSSSSSCc@                                                    .    ",
"                                            .4ZFFDSDFSFSSSSFSSSFSFSZHr                                                          ",
"                                            ;VFSSSSFSSSFSSDFSSSDSHCSZ:                                                          ",
"        .                                  +jFSSDSSSFSDSSFSSSFSSFZCHz@                 .                                        ",
"                                           <SSSSFSSSSSSSSSSSSSSSHnSHCy2*O                                 .                     ",
"                                          XsFSSSSSSSSSSSSSSSSSSSnHZCZFSNkr3&+                                                   ",
"                                          #cSSSSSSSSSSSASSSSSSSACHCCHnSSHSSCxt3%                                                ",
"                                          >ASSSSAAAAASSASSSSSSAAHCCHZSSSSCSSCFZM>                                               ",
"              .                           eFSAAAASASAAAASAAAAAAAZSCHSSnHSSSCSSZHr                                               ",
"                                         XjSAAAAAAAAASAAAAAAAAAAHSCCSCSCSCSSSCSC3                                               ",
"                                         XpZFAASAAAAAAAAAAASAAAAnCSSCHHCCSSSSSCC%                                               ",
"                                          +-4ucNZACSAAAAAAAAAAAACHCCCCCnSSCSCSHdo                                               ",
"                                             .@;kASAAACAAAAACAAACSCHZCSHSCSCSZC5                                                ",
"                   .                           $cASCCAAAACAAAAACCSSCSSSnCSSCSCb%                                 .              ",
"                                               3SAAACCAACAAACAAAZCCCCCCZSCZSCSr.                                                ",
"K                                             XgSCACAASCACCAAAACSSSCHSZCCSSCSx$.                                               K",
"K                         .                   &vAACAAACAAAAACCAAjixnnHCCSCCZx;                                         .       K",
"K                                             4SCACACCACCACACAAC>.@%5uxvCCvt%                                                  K",
"K                                            ofAACCACACCACCCACAz$    .@$=%#..                                                  K",
"K                                            %vACACCACCSCAACCCAi.       .                            .                         K",
"KK   .                                       3AnACCACACACCACCAA4        .                                                     KK",
"KK                                          XpSCCCACCCCCACCACCv*                                                              KK",
"KK                                          $cCCCCACAnACCCACCCj+                                                              KK",
"KK                                          <CCACACCbACCCCCCCAw                                                               KK",
"KKK                                        XrACCCCCAAnCnCCCCCC:                                                              KKK",
"KKK                                        +kACCCCCCnACACCACCv$                                                              KKK",
"KKK                 .                      %vCCCAbACAbbACCCCCj+                                                              KKK",
"KKKK                                       1nCCCnCbNbAnNCCNCCfX                                      .                      KKKK",
"KKKK                                       8ACCCbCAbCCCCCCCCCfX     O%@                                                     KKKK",
"KKKK                                      .unCnCANbAbCbACCCCCv-.  @>pvj#                                                    KKKK",
"KKKKK                                     XfCnCnCCbCCnbnAnAbnCcr38jnCCC2                                                   KKKKK",
"KKKKK                                     OjnCCCNCCbnCAbbbbbCCbCnnnnnCn3                                               .   KKKKK",
"KKKKKK                                    +jnCnCCbCbAbACbCbAbCAbnCnCnCn:                                                  KKKKKK",
"KKKKKK                                    XjCCnCCbCCbbbbCnbbAnnCCCnCnnc$                                                  KKKKKK",
"KKKKKKK       .                           XiCCnCbnCCCbAnNnnAbAbbnCCCnCjO                                                 KKKKKKK",
"KKKKKKK                                    9CnnnbAnnCbbCnCbbCnbCnnnnnC8                                                  KKKKKKK",
"KKKKKKKK                                   >nnCbbbnbbbnnbbbnbbbbCNnNnn:                                                 KKKKKKKK",
"KKKKKKKK                                   $cnNnCnnbCbbCNCnbbbAbnnnnnj@                                                 KKKKKKKK",
"KKKKKKKKK                                  X9nNnCbCbbbCbbnnnnbbbbCCnC5                                         .       KKKKKKKKK",
"KKKKKKKKK                                   %knnCbnbCbNbnbbnnnbAbbbnk$                                                 KKKKKKKKK",
"KKKKKKKKKK                                   <vnbNnbCbnnbbnnbbbbCbnn3                                                 KKKKKKKKKK",
"KKKKKKKKKKK             .                    .3cnnnCbbCnnnnnAbbbnbnuO                      .                         KKKKKKKKKKK",
"KKKKKKKKKKK                                   .:jnbbbbbbnnnnbbnnbCh#                                                 KKKKKKKKKKK",
"KKKKKKKKKKKK                                    #8kbnbbbnnbbbbnnnp$                                                 KKKKKKKKKKKK",
"KKKKKKKKKKKKK                                     #3ucbAnnnnnnnx8@                              .                  KKKKKKKKKKKKK",
"KKKKKKKKKKKKKK                                      X$<8uhjhfu4$                                                  KKKKKKKKKKKKKK",
"KKKKKKKKKKKKKK                                          .O++o                                                     KKKKKKKKKKKKKK",
"KKKKKKKKKKKKKKK                                                                                                  KKKKKKKKKKKKKKK",
"KKKKKKKKKKKKKKKK                                                                                                KKKKKKKKKKKKKKKK",
"KKKKKKKKKKKKKKKKK    .                                                                                         KKKKKKKKKKKKKKKKK",
"KKKKKKKKKKKKKKKKKK                                                                                            KKKKKKKKKKKKKKKKKK",
"KKKKKKKKKKKKKKKKKKK                                                                                          KKKKKKKKKKKKKKKKKKK",
"KKKKKKKKKKKKKKKKKKKK                                                                                        KKKKKKKKKKKKKKKKKKKK",
"KKKKKKKKKKKKKKKKKKKKK                    .                               .                                 KKKKKKKKKKKKKKKKKKKKK",
"KKKKKKKKKKKKKKKKKKKKKK                                                            .                       KKKKKKKKKKKKKKKKKKKKKK",
"KKKKKKKKKKKKKKKKKKKKKKK                                                                                  KKKKKKKKKKKKKKKKKKKKKKK",
"KKKKKKKKKKKKKKKKKKKKKKKKK                                                                              KKKKKKKKKKKKKKKKKKKKKKKKK",
"KKKKKKKKKKKKKKKKKKKKKKKKKK       .                                                                    KKKKKKKKKKKKKKKKKKKKKKKKKK",
"KKKKKKKKKKKKKKKKKKKKKKKKKKK                                                                          KKKKKKKKKKKKKKKKKKKKKKKKKKK",
"KKKKKKKKKKKKKKKKKKKKKKKKKKKKK                      .                                               KKKKKKKKKKKKKKKKKKKKKKKKKKKKK",
"KKKKKKKKKKKKKKKKKKKKKKKKKKKKKK                                           .                        KKKKKKKKKKKKKKKKKKKKKKKKKKKKKK",
"KKKKKKKKKKKKKKKKKKKKKKKKKKKKKKKK                                                                KKKKKKKKKKKKKKKKKKKKKKKKKKKKKKKK",
"KKKKKKKKKKKKKKKKKKKKKKKKKKKKKKKKKK                                                            KKKKKKKKKKKKKKKKKKKKKKKKKKKKKKKKKK",
"KKKKKKKKKKKKKKKKKKKKKKKKKKKKKKKKKKKK                                                        KKKKKKKKKKKKKKKKKKKKKKKKKKKKKKKKKKKK",
"KKKKKKKKKKKKKKKKKKKKKKKKKKKKKKKKKKKKKK                                                    KKKKKKKKKKKKKKKKKKKKKKKKKKKKKKKKKKKKKK",
"KKKKKKKKKKKKKKKKKKKKKKKKKKKKKKKKKKKKKKKK                                                KKKKKKKKKKKKKKKKKKKKKKKKKKKKKKKKKKKKKKKK",
"KKKKKKKKKKKKKKKKKKKKKKKKKKKKKKKKKKKKKKKKKKK                                          KKKKKKKKKKKKKKKKKKKKKKKKKKKKKKKKKKKKKKKKKKK",
"KKKKKKKKKKKKKKKKKKKKKKKKKKKKKKKKKKKKKKKKKKKKKK             .                      KKKKKKKKKKKKKKKKKKKKKKKKKKKKKKKKKKKKKKKKKKKKKK",
"KKKKKKKKKKKKKKKKKKKKKKKKKKKKKKKKKKKKKKKKKKKKKKKKKK                            KKKKKKKKKKKKKKKKKKKKKKKKKKKKKKKKKKKKKKKKKKKKKKKKKK",
"KKKKKKKKKKKKKKKKKKKKKKKKKKKKKKKKKKKKKKKKKKKKKKKKKKKKKKK                  KKKKKKKKKKKKKKKKKKKKKKKKKKKKKKKKKKKKKKKKKKKKKKKKKKKKKKK"
};
