/* XPM */
static char *result[] = {
/* columns rows colors chars-per-pixel */
"16 16 123 2 ",
"   c #631CCF",
".  c #631CD0",
"X  c #631DD0",
"o  c #5F20D2",
"O  c #5B25D5",
"+  c #5D25D4",
"@  c #5C26D5",
"#  c #5629D7",
"$  c #582BD7",
"%  c #572CD8",
"&  c #582CD8",
"*  c #5B2CD8",
"=  c #5F2DDC",
"-  c #4C37DE",
";  c #4F39DE",
":  c #4F3ADE",
">  c #4E3CDF",
",  c #4D3FDE",
"<  c #5130DA",
"1  c #5332DB",
"2  c #5432DB",
"3  c #5433DB",
"4  c #5535DB",
"5  c #5635DA",
"6  c #5C30DB",
"7  c #5E32DF",
"8  c #513CDF",
"9  c #6021D2",
"0  c #6122D3",
"q  c #6426D3",
"w  c #6836D8",
"e  c #6239DA",
"r  c #5A3BE4",
"t  c #3F50E9",
"y  c #3B55EC",
"u  c #3C55EC",
"i  c #375BEF",
"p  c #375CEF",
"a  c #385EEE",
"s  c #3F5CF3",
"d  c #3E66EC",
"f  c #2D76EE",
"g  c #2D7AEF",
"h  c #2E67F5",
"j  c #2F67F5",
"k  c #2B6AF7",
"l  c #2A6BF7",
"z  c #2C6BF7",
"x  c #2B6CF7",
"c  c #3261F2",
"v  c #3362F2",
"b  c #3563F2",
"n  c #3465F2",
"m  c #3465F4",
"M  c #3B67F3",
"N  c #3A61F4",
"B  c #316EF2",
"V  c #3169F5",
"C  c #3068F6",
"Z  c #2B7BF0",
"A  c #3376F4",
"S  c #4446E5",
"D  c #4447E5",
"F  c #4547E5",
"G  c #4940E2",
"H  c #4A40E2",
"J  c #4A41E2",
"K  c #4548E5",
"L  c #404EE9",
"P  c #404FE9",
"I  c #414FE9",
"U  c #5248E7",
"Y  c #564EE4",
"T  c #4650E3",
"R  c #4B50E7",
"E  c #4F52E7",
"W  c #4553E9",
"Q  c #415BED",
"!  c #435CED",
"~  c #4953F0",
"^  c #4258F2",
"/  c #445CF1",
"(  c #765DE3",
")  c #4063F0",
"_  c #7E70E7",
"`  c #7072EB",
"'  c #8676E8",
"]  c #9773E4",
"[  c #2684F3",
"{  c #2A83F1",
"}  c #238DF6",
"|  c #698CF6",
" . c #6992F8",
".. c #7FA2F9",
"X. c #8D86EC",
"o. c #9D84E8",
"O. c #9A8CEC",
"+. c #9699F1",
"@. c #A594EC",
"#. c #AE92E9",
"$. c #8FA5F7",
"%. c #9AA2F3",
"&. c #A5ABF4",
"*. c #B3BEF8",
"=. c #B6C3F9",
"-. c #BECDFB",
";. c #C9CFFA",
":. c #D3C3F3",
">. c #D5CAF5",
",. c #D0CFF8",
"<. c #D0D1F9",
"1. c #DDD7F8",
"2. c #E4E5FB",
"3. c #EBE8FB",
"4. c #E8EDFD",
"5. c #F2F2FD",
"6. c #F4F7FE",
"7. c #F8F7FE",
"8. c #F7F9FE",
"9. c #FAF9FE",
"0. c #FDFDFF",
"q. c white",
"w. c None",
/* pixels */
"w.w.w.w.w.~ ^ s s ^ ~ w.w.w.w.w.",
"w.w.w./ N C z x l k C N / w.w.w.",
"w.w.M m j j j V .. .h j m M w.w.",
"w.A n v v c v | 6.-.b v v n A w.",
"w.B i p p p $.4.q.=.) p p i B w.",
"} a u y y ! ;.q.q.8.*.Q y u a } ",
"[ t L P L W %.q.5.2.&.I L L t [ ",
"Z F K K S +.5.q.<.` E D K K F Z ",
"f H J J G X.7.q.0.,.Y G J J H f ",
"g > : : - _ 9.3.O.' 8 ; : : > g ",
"{ , 2 3 < @.q.1.( 4 1 3 3 2 , { ",
"w.T $ & # o.q.q.>.e % & & $ T w.",
"w.d 5 + O w #.:.] @ @ @ + 5 d w.",
"w.w.R * 9 o o q 9 9 9 9 * R w.w.",
"w.w.w.U 6 0 X   . X 0 6 U w.w.w.",
"w.w.w.w.w.r 7 = = 7 r w.w.w.w.w."
};
