/* XPM */
static char *result[] = {
/* columns rows colors chars-per-pixel */
"32 32 162 2 ",
"   c #2758B4",
".  c #2859B4",
"X  c #295AB4",
"o  c #2A5AB4",
"O  c #2A5BB4",
"+  c #2A5BB5",
"@  c #2B5BB5",
"#  c #2B5CB5",
"$  c #2C5CB5",
"%  c #2D5DB5",
"&  c #2E5DB5",
"*  c #2E5DB6",
"=  c #2E5EB6",
"-  c #2F5EB6",
";  c #2F5FB6",
":  c #305FB6",
">  c #3160B6",
",  c #3261B7",
"<  c #3361B7",
"1  c #3764B8",
"2  c #3765B8",
"3  c #3865B8",
"4  c #3865B9",
"5  c #3A67B9",
"6  c #3B68BA",
"7  c #3C68B9",
"8  c #3D69B9",
"9  c #3C69BA",
"0  c #3D69BA",
"q  c #3E6ABA",
"w  c #406BBB",
"e  c #416CBB",
"r  c #436EBC",
"t  c #456FBC",
"y  c #4670BC",
"u  c #4671BD",
"i  c #4771BE",
"p  c #4872BE",
"a  c #4A73BF",
"s  c #4C74BD",
"d  c #4C75BE",
"f  c #4F77BE",
"g  c #4E76BF",
"h  c #4D76C0",
"j  c #527AC1",
"k  c #557BC0",
"l  c #587EC1",
"z  c #597FC2",
"x  c #597FC3",
"c  c #5A80C2",
"v  c #6A8BC5",
"b  c #6C8EC8",
"n  c #6C8EC9",
"m  c #6F90C8",
"M  c #7193CB",
"N  c #7594C8",
"B  c #7897CC",
"V  c #7998CD",
"C  c #7C9BCE",
"Z  c #84A0CD",
"A  c #86A2CF",
"S  c #8BA6CF",
"D  c #8EA7CF",
"F  c #8FA8CF",
"G  c #85A2D1",
"H  c #87A2D0",
"J  c #89A4D1",
"K  c #8CA7D1",
"L  c #8DA7D1",
"P  c #91AAD1",
"I  c #90AAD3",
"U  c #98B1D7",
"Y  c #A7BAD5",
"T  c #A7BAD6",
"R  c #A3B9D9",
"E  c #A3BADB",
"W  c #A4BAD9",
"Q  c #ACBFD9",
"!  c #AABFDD",
"~  c #AFC1D7",
"^  c #AEC1DA",
"/  c #ADC0DC",
"(  c #AEC2DF",
")  c #B2C4DA",
"_  c #B6C6DB",
"`  c #B3C5DE",
"'  c #B9C8D9",
"]  c #BACADD",
"[  c #BBCBDD",
"{  c #BDCBDC",
"}  c #BACBE1",
"|  c #C0CFDF",
" . c #C4D1DD",
".. c #C5D2DD",
"X. c #C5D2DE",
"o. c #C7D3DF",
"O. c #C0CFE0",
"+. c #C5D3E2",
"@. c #C5D3E3",
"#. c #C1D1E4",
"$. c #C3D2E4",
"%. c #C4D3E5",
"&. c #C5D4E7",
"*. c #CCD7E0",
"=. c #C8D5E4",
"-. c #CDD9E3",
";. c #CED9E3",
":. c #CFDAE3",
">. c #CFDCEA",
",. c #D0DAE0",
"<. c #D1DAE0",
"1. c #D1DBE0",
"2. c #D1DBE1",
"3. c #D2DBE1",
"4. c #D0DBE3",
"5. c #D2DCE0",
"6. c #D3DCE1",
"7. c #D2DCE2",
"8. c #D3DDE2",
"9. c #D3DDE3",
"0. c #D5DEE1",
"q. c #D4DDE2",
"w. c #D4DEE3",
"e. c #D5DEE3",
"r. c #D6DFE3",
"t. c #D5DFE5",
"y. c #D6DFE4",
"u. c #D7E0E4",
"i. c #D6E0E5",
"p. c #D6E0E6",
"a. c #D7E0E6",
"s. c #D7E1E6",
"d. c #D7E1E7",
"f. c #D8E1E6",
"g. c #D8E1E7",
"h. c #D8E2E6",
"j. c #D8E2E7",
"k. c #DAE3E7",
"l. c #D6E1EA",
"z. c #D9E2E8",
"x. c #DAE3E8",
"c. c #DBE4E9",
"v. c #DCE5E9",
"b. c #DCE5EA",
"n. c #DDE6EA",
"m. c #DDE6EB",
"M. c #DEE7EB",
"N. c #DBE5ED",
"B. c #DCE6EC",
"V. c #DEE7EC",
"C. c #DFE8EB",
"Z. c #DFE8EC",
"A. c #DFE8ED",
"S. c #E0E9EC",
"D. c #E1E9ED",
"F. c #E0E9EE",
"G. c #E1EAEE",
"H. c #E1EAEF",
"J. c #E3ECEF",
"K. c #E4ECF0",
"L. c #E5EDF0",
"P. c None",
/* pixels */
"P.P.P.P.P.P.P.P.P.P.P.P.$ $ $ $ $ $ $ $ P.P.P.P.P.P.P.P.P.P.P.P.",
"P.P.P.P.P.P.P.P.P.$ $ $ $ $ $ $ $ $ $ $ $ $ $ P.P.P.P.P.P.P.P.P.",
"P.P.P.P.P.P.P.$ $ $ $ $ $ $ $ $ $ $ $ $ $ $ $ $ $ P.P.P.P.P.P.P.",
"P.P.P.P.P.P.$ $ $ $ $ $ $ $ $ $ $ O O $ $ $ $ $ $ $ P.P.P.P.P.P.",
"P.P.P.P.P.$ $ $ $ $ $ $ $ $ $ $ $ a i * $ $ $ $ $ $ $ P.P.P.P.P.",
"P.P.P.P.$ $ $ $ $ $ $ $ $ $ $ o h &.>.M @ $ $ $ $ $ $ $ P.P.P.P.",
"P.P.P.$ $ $ $ $ $ $ $ $ $ $ # , E K.L.( : $ $ $ $ $ $ $ $ P.P.P.",
"P.P.$ $ $ $ $ $ $ $ $ $ $ o   n N.H.J.! ; $ $ $ $ $ $ $ $ $ P.P.",
"P.P.$ $ $ $ $ $ $ $ $ $ $ j V #.G.F.G.G X $ $ $ $ $ $ $ $ $ P.P.",
"P.$ $ $ $ $ $ $ $ $ $ O u %.G.A.A.A.B.C 6 - $ $ $ $ $ $ $ $ $ P.",
"P.$ $ $ $ $ $ $ $ $ $ X B Z.V.V.V.V.V.l.$.U 5 @ $ $ $ $ $ $ $ P.",
"P.$ $ $ $ $ $ $ $ $ $ - R S.m.m.m.m.m.m.D.} 4 @ $ $ $ $ $ $ $ P.",
"$ $ $ $ $ $ $ $ $ $ $ * x W b.b.b.m.M.m.C.J @ $ $ $ $ $ $ $ $ $ ",
"$ $ $ $ $ $ $ $ $ $ $ o . I n.c.b.=./ @.` p + $ $ $ $ $ $ $ $ $ ",
"$ $ $ $ $ $ $ $ $ $ $ z K +.c.x.c.H - w 5 # $ $ $ $ $ $ $ $ $ $ ",
"$ $ $ $ $ $ $ $ $ + t O.v.z.j.j.d.L g 1 $ $ $ $ $ $ $ $ $ $ $ $ ",
"$ $ $ $ $ $ $ $ $ X b g.f.s.s.s.s.p.-.^ r @ $ $ $ $ $ $ $ $ $ $ ",
"$ $ $ $ $ $ $ $ $ @ y A ;.a.i.i.h.f.k.] 7 @ $ $ $ $ $ $ $ $ $ $ ",
"$ $ $ $ $ $ $ $ $ $ . c :.t.t.4.Q [ | m @ $ $ $ $ $ $ $ $ $ $ $ ",
"$ $ $ $ $ $ $ $ $ $ # S u.w.y._ 0 9 e & $ $ $ $ $ $ $ $ $ $ $ $ ",
"P.$ $ $ $ $ $ $ $ @ 3 ) e.9.r.P @ X @ $ $ $ $ $ $ $ $ $ $ $ $ P.",
"P.$ $ $ $ $ $ $ $ o d o.8.7.q.Z q f = $ $ $ $ $ $ $ $ $ $ $ $ P.",
"P.$ $ $ $ $ $ $ $ X l *.3.2.3.X.{ T < $ $ $ $ $ $ $ $ $ $ $ $ P.",
"P.P.$ $ $ $ $ $ $ O s ..2.,.,.1.0.D $ $ $ $ $ $ $ $ $ $ $ $ P.P.",
"P.P.$ $ $ $ $ $ $ $ > F <.5.1.6. .k o $ $ $ $ $ $ $ $ $ $ $ P.P.",
"P.P.P.$ $ $ $ $ $ $ @ 2 N Y ' ~ v % $ $ $ $ $ $ $ $ $ $ $ P.P.P.",
"P.P.P.P.$ $ $ $ $ $ $ @ + < 8 2 # $ $ $ $ $ $ $ $ $ $ $ P.P.P.P.",
"P.P.P.P.P.$ $ $ $ $ $ $ $ $ @ @ $ $ $ $ $ $ $ $ $ $ $ P.P.P.P.P.",
"P.P.P.P.P.P.$ $ $ $ $ $ $ $ $ $ $ $ $ $ $ $ $ $ $ $ P.P.P.P.P.P.",
"P.P.P.P.P.P.P.$ $ $ $ $ $ $ $ $ $ $ $ $ $ $ $ $ $ P.P.P.P.P.P.P.",
"P.P.P.P.P.P.P.P.P.$ $ $ $ $ $ $ $ $ $ $ $ $ $ P.P.P.P.P.P.P.P.P.",
"P.P.P.P.P.P.P.P.P.P.P.P.$ $ $ $ $ $ $ $ P.P.P.P.P.P.P.P.P.P.P.P."
};
